<svg width="145" height="30" viewBox="0 0 145 30" fill="none" xmlns="http://www.w3.org/2000/svg">
<path d="M12.6831 3.68955C6.92445 5.62887 7.38554 12.984 7.41307 13.1289C6.23631 6.1456 6.1933 2.43644 10.5445 0.372261C13.7122 -1.13051 16.7754 2.31139 12.6831 3.68955Z" fill="url(#paint0_linear_476_2619)"/>
<path d="M2.06266 5.01708C2.60575 3.59149 3.5654 3.30169 4.46982 3.46246C5.57322 3.65861 5.79805 4.9906 5.46021 6.05917C3.99302 10.6999 5.99299 14.9244 7.52038 16.6699C3.53776 15.4899 0.882625 8.11468 2.06266 5.01708Z" fill="url(#paint1_linear_476_2619)"/>
<path fill-rule="evenodd" clip-rule="evenodd" d="M14.0636 29.7979H8.77518V22.0376C7.37584 21.8162 5.9931 21.5103 4.71782 21.0951C0.985784 19.88 0.00397955 18.3245 1.39638e-05 17.2149C-0.00245681 16.5236 0.322963 15.7279 0.97205 15.4899C1.73616 15.2098 3.20218 15.477 5.75035 17.4075C7.43875 18.6866 9.74275 19.217 12.0155 19.3113C15.0863 19.4239 17.6785 19.1913 18.9856 18.6606C18.9927 18.6584 18.9998 18.6562 19.0068 18.6539C19.0187 18.6485 19.0304 18.643 19.042 18.6375C19.0432 18.637 19.0445 18.6378 19.0445 18.6391V18.6391C19.0445 18.6403 19.0457 18.6412 19.0468 18.6408C19.335 18.5434 19.5906 18.3984 19.8136 18.2058C20.2851 17.8164 20.7971 16.7921 20.7971 16.1157C20.7971 15.4187 20.5613 14.8755 20.0899 14.4861C19.639 14.0966 19.0548 13.9019 18.3373 13.9019H14.0636V18.1445C11.7715 18.0043 9.80618 17.7103 8.77518 17.4284V9.28993H19.0445C21.2583 9.28993 23.0006 9.94586 24.2714 11.2577C25.5423 12.5491 26.1777 14.1684 26.1777 16.1157C26.1777 18.0424 25.5423 19.6618 24.2714 20.9736C23.0006 22.265 21.2583 22.9106 19.0445 22.9106H14.0636V29.7979Z" fill="url(#paint2_linear_476_2619)"/>
<path d="M39.0785 24.0524C37.7824 24.0524 36.7212 23.5254 35.8951 22.4714V27.7273H33.1817V13.4766H35.8951V14.7799C36.707 13.7401 37.7681 13.2203 39.0785 13.2203C40.4317 13.2203 41.5284 13.7045 42.3688 14.6731C43.2234 15.6274 43.6507 16.9449 43.6507 18.6257C43.6507 20.3064 43.2234 21.631 42.3688 22.5996C41.5284 23.5682 40.4317 24.0524 39.0785 24.0524ZM38.2239 21.6382C39.0073 21.6382 39.634 21.3604 40.1041 20.8049C40.5883 20.2494 40.8305 19.523 40.8305 18.6257C40.8305 17.7426 40.5883 17.0233 40.1041 16.4678C39.634 15.9123 39.0073 15.6345 38.2239 15.6345C37.7824 15.6345 37.3408 15.7485 36.8993 15.9764C36.4577 16.2043 36.123 16.482 35.8951 16.8096V20.4631C36.123 20.7907 36.4577 21.0684 36.8993 21.2963C37.3551 21.5242 37.7966 21.6382 38.2239 21.6382Z" fill="white"/>
<path d="M50.4877 24.0524C48.8925 24.0524 47.5749 23.5539 46.5352 22.5569C45.4954 21.5598 44.9755 20.2494 44.9755 18.6257C44.9755 17.1016 45.474 15.8197 46.4711 14.7799C47.4824 13.7401 48.7643 13.2203 50.3168 13.2203C51.8551 13.2203 53.1014 13.7473 54.0557 14.8013C55.01 15.8411 55.4872 17.2084 55.4872 18.9034V19.5016H47.8171C47.9025 20.1853 48.2088 20.7551 48.7358 21.2109C49.2628 21.6667 49.9465 21.8946 50.7868 21.8946C51.2426 21.8946 51.734 21.802 52.261 21.6168C52.8023 21.4316 53.2296 21.1824 53.543 20.869L54.7394 22.621C53.6996 23.5753 52.2824 24.0524 50.4877 24.0524ZM52.8593 17.6642C52.8165 17.0802 52.5815 16.5532 52.1542 16.0832C51.7412 15.6132 51.1287 15.3782 50.3168 15.3782C49.5477 15.3782 48.9494 15.6132 48.5221 16.0832C48.0948 16.539 47.8456 17.066 47.7743 17.6642H52.8593Z" fill="white"/>
<path d="M62.2543 24.0524C60.659 24.0524 59.3486 23.5468 58.3231 22.5355C57.2976 21.5242 56.7848 20.2209 56.7848 18.6257C56.7848 17.0446 57.2976 15.7485 58.3231 14.7372C59.3486 13.7259 60.659 13.2203 62.2543 13.2203C64.0775 13.2203 65.4377 13.8399 66.3351 15.079L64.5617 16.7455C64.0632 16.0049 63.3368 15.6345 62.3825 15.6345C61.5564 15.6345 60.8798 15.9123 60.3528 16.4678C59.84 17.009 59.5836 17.7283 59.5836 18.6257C59.5836 19.523 59.84 20.2494 60.3528 20.8049C60.8798 21.3604 61.5564 21.6382 62.3825 21.6382C63.3083 21.6382 64.0347 21.2678 64.5617 20.5272L66.3351 22.1723C65.4377 23.4257 64.0775 24.0524 62.2543 24.0524Z" fill="white"/>
<path d="M77.8087 23.7961H75.0953V17.5147C75.0953 16.831 74.9315 16.3467 74.6039 16.0618C74.2763 15.777 73.7991 15.6345 73.1724 15.6345C72.2181 15.6345 71.4347 16.0405 70.8223 16.8524V23.7961H68.1089V9.54544H70.8223V14.8227C71.1926 14.3811 71.6911 14.0037 72.3178 13.6903C72.9588 13.3769 73.671 13.2203 74.4543 13.2203C75.5653 13.2203 76.3986 13.5051 76.9541 14.0749C77.5238 14.6446 77.8087 15.4422 77.8087 16.4678V23.7961Z" fill="white"/>
<path d="M85.3523 24.0524C83.757 24.0524 82.4395 23.5539 81.3997 22.5569C80.3599 21.5598 79.8401 20.2494 79.8401 18.6257C79.8401 17.1016 80.3386 15.8197 81.3356 14.7799C82.3469 13.7401 83.6288 13.2203 85.1814 13.2203C86.7197 13.2203 87.966 13.7473 88.9203 14.8013C89.8746 15.8411 90.3518 17.2084 90.3518 18.9034V19.5016H82.6816C82.7671 20.1853 83.0733 20.7551 83.6003 21.2109C84.1273 21.6667 84.811 21.8946 85.6514 21.8946C86.1072 21.8946 86.5986 21.802 87.1256 21.6168C87.6669 21.4316 88.0942 21.1824 88.4075 20.869L89.604 22.621C88.5642 23.5753 87.147 24.0524 85.3523 24.0524ZM87.7238 17.6642C87.6811 17.0802 87.4461 16.5532 87.0188 16.0832C86.6057 15.6132 85.9932 15.3782 85.1814 15.3782C84.4122 15.3782 83.814 15.6132 83.3867 16.0832C82.9594 16.539 82.7101 17.066 82.6389 17.6642H87.7238Z" fill="white"/>
<path d="M101.99 23.7961H99.2768V17.5574C99.2768 16.2755 98.6429 15.6345 97.3752 15.6345C96.3924 15.6345 95.609 16.0405 95.0251 16.8524V23.7961H92.3117V13.4766H95.0251V14.8227C95.9224 13.7544 97.126 13.2203 98.6358 13.2203C99.7468 13.2203 100.58 13.5123 101.136 14.0962C101.705 14.6802 101.99 15.485 101.99 16.5105V23.7961Z" fill="white"/>
<path d="M107.291 23.5183C106.949 23.8602 106.543 24.0311 106.073 24.0311C105.603 24.0311 105.197 23.8602 104.855 23.5183C104.513 23.1765 104.342 22.7705 104.342 22.3005C104.342 21.8305 104.513 21.4245 104.855 21.0827C105.197 20.7408 105.603 20.5699 106.073 20.5699C106.543 20.5699 106.949 20.7408 107.291 21.0827C107.633 21.4245 107.804 21.8305 107.804 22.3005C107.804 22.7705 107.633 23.1765 107.291 23.5183Z" fill="white"/>
<path d="M119.06 23.7961H116.347V22.7278C115.606 23.6109 114.516 24.0524 113.078 24.0524C112.152 24.0524 111.319 23.7533 110.578 23.1551C109.852 22.5426 109.488 21.7023 109.488 20.634C109.488 19.523 109.845 18.6898 110.557 18.1343C111.283 17.5788 112.124 17.301 113.078 17.301C114.545 17.301 115.635 17.7212 116.347 18.5616V17.1728C116.347 16.6458 116.14 16.2256 115.727 15.9123C115.314 15.5989 114.766 15.4422 114.082 15.4422C112.957 15.4422 111.953 15.8482 111.07 16.6601L110.044 14.844C111.269 13.7615 112.772 13.2203 114.552 13.2203C115.877 13.2203 116.959 13.5265 117.8 14.139C118.64 14.7514 119.06 15.7485 119.06 17.1301V23.7961ZM114.167 22.215C115.179 22.215 115.905 21.9159 116.347 21.3177V20.0358C115.905 19.4375 115.179 19.1384 114.167 19.1384C113.612 19.1384 113.149 19.2809 112.779 19.5657C112.408 19.8364 112.223 20.2138 112.223 20.6981C112.223 21.1681 112.408 21.5385 112.779 21.8091C113.149 22.0797 113.612 22.215 114.167 22.215Z" fill="white"/>
<path d="M124.465 23.7961H121.751V13.4766H124.465V14.8868C124.849 14.4025 125.341 14.0037 125.939 13.6903C126.537 13.3769 127.143 13.2203 127.755 13.2203V15.8696C127.57 15.8268 127.321 15.8055 127.007 15.8055C126.552 15.8055 126.067 15.9194 125.554 16.1473C125.042 16.3752 124.679 16.6529 124.465 16.9805V23.7961Z" fill="white"/>
<path d="M132.912 24.0524C131.957 24.0524 131.231 23.8103 130.732 23.326C130.234 22.8417 129.985 22.1438 129.985 21.2322V15.8482H128.275V13.4766H129.985V10.6564H132.719V13.4766H134.813V15.8482H132.719V20.5058C132.719 20.8334 132.805 21.104 132.976 21.3177C133.147 21.5313 133.375 21.6382 133.659 21.6382C134.087 21.6382 134.4 21.5385 134.599 21.3391L135.176 23.3901C134.678 23.8317 133.923 24.0524 132.912 24.0524Z" fill="white"/>
<path d="M140.387 24.0524C139.49 24.0524 138.628 23.91 137.802 23.6251C136.99 23.3403 136.313 22.9486 135.772 22.45L136.947 20.5485C137.346 20.9189 137.887 21.2465 138.571 21.5313C139.255 21.8162 139.903 21.9586 140.515 21.9586C141.085 21.9586 141.512 21.8589 141.797 21.6595C142.096 21.4601 142.246 21.1895 142.246 20.8477C142.246 20.5913 142.089 20.3847 141.776 20.2281C141.477 20.0571 141.099 19.9361 140.644 19.8649C140.202 19.7936 139.711 19.6868 139.169 19.5444C138.642 19.4019 138.151 19.231 137.695 19.0316C137.254 18.8322 136.876 18.5188 136.563 18.0915C136.264 17.65 136.114 17.1087 136.114 16.4678C136.114 15.5562 136.492 14.787 137.246 14.1603C138.001 13.5336 139.034 13.2203 140.344 13.2203C141.94 13.2203 143.328 13.6903 144.511 14.6304L143.421 16.4891C143.093 16.1473 142.652 15.8624 142.096 15.6345C141.555 15.4066 140.978 15.2927 140.366 15.2927C139.881 15.2927 139.49 15.3924 139.191 15.5918C138.892 15.777 138.742 16.0191 138.742 16.3182C138.742 16.5461 138.892 16.7384 139.191 16.8951C139.49 17.0375 139.867 17.1443 140.323 17.2156C140.779 17.2868 141.27 17.4007 141.797 17.5574C142.324 17.6998 142.816 17.8779 143.271 18.0915C143.727 18.2909 144.105 18.6185 144.404 19.0743C144.703 19.5301 144.852 20.0856 144.852 20.7408C144.852 21.7094 144.454 22.507 143.656 23.1337C142.873 23.7462 141.783 24.0524 140.387 24.0524Z" fill="white"/>
<defs>
<linearGradient id="paint0_linear_476_2619" x1="4" y1="12.5" x2="24.995" y2="19.1491" gradientUnits="userSpaceOnUse">
<stop stop-color="#51EAFF"/>
<stop offset="1" stop-color="#2B59FF"/>
</linearGradient>
<linearGradient id="paint1_linear_476_2619" x1="4" y1="12.5" x2="24.995" y2="19.1491" gradientUnits="userSpaceOnUse">
<stop stop-color="#51EAFF"/>
<stop offset="1" stop-color="#2B59FF"/>
</linearGradient>
<linearGradient id="paint2_linear_476_2619" x1="4" y1="12.5" x2="24.995" y2="19.1491" gradientUnits="userSpaceOnUse">
<stop stop-color="#51EAFF"/>
<stop offset="1" stop-color="#2B59FF"/>
</linearGradient>
</defs>
</svg>
