<svg width="25" height="28" viewBox="0 0 25 28" fill="none" xmlns="http://www.w3.org/2000/svg">
<path d="M5.66658 27.0416C4.25257 27.0357 2.89826 26.4709 1.89912 25.4703C0.899981 24.4697 0.337091 23.1146 0.333252 21.7005V6.29946C0.333768 5.36345 0.580507 4.44404 1.0487 3.63354C1.51689 2.82304 2.19006 2.14996 3.00063 1.68188C3.81119 1.2138 4.73063 0.967185 5.66664 0.966797C6.60266 0.96641 7.5223 1.21226 8.33325 1.67967L21.6666 9.38021C22.4774 9.84852 23.1506 10.522 23.6187 11.3329C24.0868 12.1438 24.3333 13.0637 24.3333 14C24.3333 14.9363 24.0868 15.8562 23.6187 16.6671C23.1506 17.478 22.4774 18.1515 21.6666 18.6198L8.33325 26.3203C7.52333 26.7912 6.60346 27.0401 5.66658 27.0416Z" fill="#6563FF"/>
</svg>
